<?xml version="1.0" standalone="no"?>
<!DOCTYPE svg PUBLIC "-//W3C//DTD SVG 20010904//EN"
 "http://www.w3.org/TR/2001/REC-SVG-20010904/DTD/svg10.dtd">
<svg version="1.0" xmlns="http://www.w3.org/2000/svg"
 width="1000.000000pt" height="1000.000000pt" viewBox="0 0 1000.000000 1000.000000"
 preserveAspectRatio="xMidYMid meet">
<metadata>
Created by potrace 1.11, written by Peter Selinger 2001-2013
</metadata>
<g transform="translate(0.000000,1000.000000) scale(0.100000,-0.100000)"
fill="#000000" stroke="none">
<path d="M3215 9476 c-12 -9 -19 -27 -21 -52 -1 -22 -5 -47 -9 -56 -4 -11 -3
-18 5 -18 6 0 8 -4 5 -10 -3 -5 -1 -10 6 -10 8 0 8 -4 -1 -15 -7 -8 -9 -15 -4
-15 4 0 3 -5 -3 -11 -7 -7 -8 -21 -3 -40 5 -17 5 -31 -1 -35 -9 -5 -8 -49 2
-79 2 -5 -3 -20 -10 -33 -9 -18 -10 -27 -1 -37 7 -8 8 -20 4 -26 -5 -9 -2 -10
9 -6 10 3 17 2 17 -2 0 -5 -6 -11 -12 -13 -9 -3 -8 -10 5 -23 10 -9 16 -24 13
-32 -3 -8 -1 -11 4 -8 6 3 10 0 10 -7 0 -16 -20 -48 -20 -32 0 6 -19 10 -45 9
-33 0 -44 3 -41 12 6 16 5 16 -28 3 -18 -6 -26 -6 -26 1 0 6 -4 7 -10 4 -5 -3
-10 -1 -10 5 0 6 -4 8 -10 5 -5 -3 -10 -1 -10 4 0 6 -6 11 -13 11 -15 0 -40
37 -32 49 3 5 -4 7 -15 4 -12 -3 -22 1 -26 11 -3 9 -10 13 -15 10 -5 -3 -12 1
-15 10 -3 9 -12 12 -21 9 -10 -4 -14 -2 -10 4 11 18 -57 37 -82 23 -49 -26
-50 -91 -3 -189 14 -29 27 -64 28 -77 1 -12 13 -37 25 -54 18 -24 21 -34 12
-48 -6 -9 -20 -17 -31 -16 -12 0 -19 -3 -17 -7 3 -4 -2 -10 -11 -13 -22 -8
-22 -8 -27 12 -3 10 -5 4 -6 -13 -1 -26 -3 -28 -14 -14 -10 13 -15 14 -24 4
-7 -7 -9 -17 -5 -21 4 -5 -2 -2 -13 7 -24 19 -59 14 -51 -7 3 -8 2 -13 -3 -9
-13 8 -42 -5 -35 -16 3 -5 10 -7 15 -4 5 4 9 -1 9 -9 0 -10 -9 -16 -25 -16
-16 0 -23 -4 -19 -13 3 -8 -2 -14 -11 -14 -10 0 -14 6 -10 15 5 12 3 13 -10 2
-9 -7 -14 -19 -11 -26 4 -11 -3 -18 -29 -24 -13 -3 -85 -59 -107 -83 -9 -10
-22 -16 -27 -12 -10 5 -56 -22 -89 -52 -7 -7 -20 -13 -28 -13 -8 0 -12 -4 -9
-10 6 -9 -8 -14 -27 -11 -5 0 -8 -6 -8 -14 0 -17 -34 -37 -45 -27 -5 4 -5 1
-1 -5 4 -8 1 -13 -8 -13 -9 0 -15 -3 -14 -7 4 -12 -28 -54 -35 -46 -4 3 -7 1
-7 -6 0 -7 -4 -10 -10 -6 -5 3 -17 -7 -27 -22 -26 -41 -53 -68 -66 -68 -7 0
-16 -10 -22 -22 -6 -14 -18 -23 -32 -23 -13 0 -23 -4 -23 -10 0 -5 8 -7 18 -4
14 5 15 4 2 -5 -8 -6 -23 -11 -32 -11 -20 0 -27 -10 -30 -44 -1 -14 -4 -23 -7
-21 -5 6 -51 -47 -51 -59 0 -4 -7 -6 -15 -2 -9 3 -15 0 -15 -9 0 -7 -11 -22
-25 -33 -14 -11 -25 -27 -25 -35 0 -11 -8 -15 -27 -13 -16 2 -36 4 -45 5 -10
0 -18 7 -18 15 0 10 -12 13 -46 11 -32 -3 -47 1 -51 11 -3 8 -11 14 -17 14 -7
0 -18 6 -24 12 -7 7 -20 13 -30 13 -11 0 -16 7 -15 20 1 11 0 14 -3 8 -10 -22
-33 -14 -49 17 -9 18 -23 30 -35 30 -11 0 -24 9 -30 19 -5 11 -19 23 -30 26
-11 3 -20 12 -20 18 0 19 -53 64 -57 50 -3 -7 -16 -13 -30 -13 -20 0 -24 4
-21 23 3 24 -19 57 -39 57 -7 0 -13 5 -13 10 0 6 -7 10 -15 10 -8 0 -15 5 -15
10 0 6 -13 10 -28 10 -46 0 -69 -71 -35 -111 8 -9 15 -25 17 -35 3 -11 9 -30
14 -44 5 -14 8 -33 7 -42 -2 -10 1 -20 6 -24 5 -3 9 -16 9 -30 0 -13 4 -24 10
-24 9 0 24 -59 18 -71 -2 -3 5 -13 15 -23 20 -20 22 -32 5 -42 -8 -5 -9 -1 -4
12 5 14 4 16 -5 7 -13 -13 -4 -33 17 -33 8 0 14 -5 14 -11 0 -6 9 -23 20 -39
11 -15 17 -30 13 -34 -3 -3 -2 -6 4 -6 14 0 35 -49 27 -63 -4 -7 -4 -9 1 -5 5
5 14 -1 22 -12 8 -11 21 -20 29 -20 8 0 14 -7 14 -16 0 -8 -5 -12 -11 -8 -7 4
-7 -1 1 -15 6 -12 17 -20 23 -18 7 2 20 -9 29 -25 10 -15 22 -28 28 -28 5 0
10 -7 10 -15 0 -8 3 -15 8 -15 18 -1 74 -61 69 -74 -4 -9 -1 -13 6 -11 18 7
50 -22 41 -36 -4 -8 -3 -10 4 -5 6 4 24 -6 39 -22 27 -28 68 -49 87 -43 5 1 4
-5 -3 -13 -8 -9 -11 -26 -7 -40 4 -17 1 -26 -10 -30 -12 -5 -15 -17 -13 -50 3
-32 1 -42 -8 -39 -7 3 -13 0 -13 -5 0 -6 -6 -12 -12 -15 -7 -2 -4 -3 7 -1 19
3 20 -3 20 -85 0 -63 -4 -93 -15 -106 -14 -17 -13 -18 2 -12 17 6 43 -15 31
-26 -3 -4 -1 -12 5 -19 5 -7 12 -33 15 -58 6 -55 11 -77 20 -86 3 -4 2 -15 -4
-25 -7 -15 -6 -19 5 -19 20 0 48 -30 42 -45 -3 -8 2 -11 12 -9 17 5 42 -34 42
-63 0 -7 7 -13 15 -13 8 0 23 -9 32 -20 10 -11 25 -20 35 -20 9 0 34 -16 55
-36 52 -48 64 -57 95 -73 34 -17 35 -26 6 -28 -12 -1 -28 7 -36 18 -15 22 -32
17 -32 -11 0 -11 -14 -33 -30 -50 -17 -17 -30 -39 -30 -49 0 -10 -3 -21 -7
-25 -4 -3 -8 -14 -9 -22 -1 -9 -6 -23 -10 -32 -9 -20 -9 -20 -18 -54 -5 -16
-12 -25 -17 -22 -5 3 -9 -2 -9 -11 0 -9 -5 -13 -10 -10 -6 3 -10 1 -10 -4 0
-6 4 -11 10 -11 12 0 2 -29 -17 -52 -13 -14 -12 -18 4 -27 16 -9 16 -10 -5
-11 l-23 0 26 -26 c23 -23 24 -27 10 -46 -10 -15 -11 -26 -5 -33 7 -9 5 -16
-5 -25 -14 -12 -14 -15 2 -32 16 -17 27 -118 13 -118 -3 0 -5 -23 -4 -51 0
-37 6 -56 18 -64 12 -9 13 -14 5 -17 -9 -3 -8 -8 3 -18 8 -8 13 -22 10 -32 -2
-10 0 -18 6 -18 10 0 25 -37 23 -57 -1 -7 2 -13 8 -13 5 0 8 -8 6 -17 -1 -10
2 -24 8 -30 6 -9 6 -13 -1 -13 -5 0 -8 -9 -5 -20 3 -11 11 -20 19 -20 8 0 11
-6 8 -15 -3 -8 1 -24 10 -37 9 -12 16 -35 16 -50 0 -16 6 -37 13 -48 9 -16 9
-22 0 -28 -8 -5 -13 -37 -14 -87 -1 -44 -4 -84 -8 -90 -3 -5 -7 -30 -8 -55 -3
-76 -7 -90 -23 -90 -13 0 -13 -2 -1 -9 13 -9 22 -87 20 -166 -2 -53 4 -110 11
-110 1 0 4 -20 6 -45 3 -25 9 -47 14 -50 4 -3 11 -28 14 -55 12 -97 15 -111
25 -138 6 -15 8 -27 4 -27 -3 0 1 -8 9 -17 9 -10 19 -33 23 -51 4 -18 13 -32
21 -32 8 0 14 -4 14 -10 0 -21 2 -26 26 -57 13 -17 24 -36 24 -42 0 -6 5 -11
10 -11 6 0 10 -7 10 -15 0 -8 5 -15 10 -15 6 0 10 -7 10 -15 0 -8 5 -15 10
-15 6 0 10 -6 10 -14 0 -7 7 -19 15 -26 8 -7 13 -15 10 -19 -5 -10 39 -61 54
-61 6 0 11 -5 11 -11 0 -5 -4 -8 -9 -5 -11 7 -23 -22 -15 -35 7 -12 34 -11 34
1 0 6 6 5 14 -2 10 -9 11 -18 5 -30 -7 -13 -6 -18 5 -18 9 0 16 -11 18 -28 2
-22 8 -27 31 -27 25 1 28 -2 24 -24 -5 -23 -4 -24 7 -8 15 19 27 12 19 -11 -4
-10 -2 -13 5 -8 6 3 16 -2 21 -13 8 -14 6 -24 -9 -41 -11 -12 -17 -27 -13 -33
4 -6 0 -8 -10 -4 -10 3 -17 2 -17 -3 0 -6 5 -10 10 -10 6 0 10 -4 10 -10 0 -5
-8 -10 -19 -10 -28 0 -45 -25 -28 -41 12 -12 11 -15 -7 -25 -15 -8 -25 -8 -36
0 -13 10 -13 9 -1 -7 22 -27 22 -66 1 -87 -10 -10 -16 -21 -13 -24 4 -3 -6 -6
-21 -6 -26 0 -27 -1 -12 -22 21 -29 20 -33 -7 -45 -15 -7 -29 -8 -41 -1 -9 5
-24 7 -31 4 -8 -3 -17 -1 -20 4 -3 5 -13 6 -22 3 -10 -4 -14 -2 -10 4 3 5 0
10 -8 10 -8 0 -15 -6 -15 -14 0 -7 -7 -13 -15 -13 -8 0 -24 -9 -36 -21 -15
-15 -24 -18 -32 -10 -6 6 -20 11 -32 11 -12 0 -27 6 -34 13 -11 10 -11 8 -1
-12 10 -19 9 -25 -1 -32 -8 -5 -17 -9 -21 -9 -4 0 -5 -7 -2 -15 4 -10 0 -15
-15 -15 -23 0 -29 -16 -8 -23 8 -3 4 -12 -13 -26 -14 -13 -18 -19 -11 -15 9 5
6 -4 -7 -23 -12 -17 -19 -33 -15 -36 3 -3 -4 -23 -16 -43 -16 -27 -19 -39 -10
-44 7 -5 10 -19 7 -34 -3 -15 -1 -29 3 -32 5 -3 6 -17 3 -31 -5 -18 -3 -24 5
-19 6 4 11 3 11 -3 0 -5 3 -16 6 -25 4 -11 0 -16 -12 -16 -17 -1 -17 -2 -3
-13 14 -11 22 -57 21 -120 -1 -10 4 -15 10 -11 8 5 9 -3 5 -24 -5 -24 -3 -32
7 -32 8 0 16 -6 19 -14 4 -9 0 -12 -12 -9 -14 4 -17 -2 -17 -30 1 -19 6 -34
13 -34 7 0 10 4 7 9 -12 20 19 5 48 -22 17 -17 34 -30 37 -31 30 -4 44 -10 54
-23 7 -9 26 -17 42 -18 17 -1 39 -8 49 -15 14 -9 23 -9 33 -2 7 7 20 8 30 3
24 -10 116 -4 124 8 4 7 9 6 13 -1 5 -7 15 -6 32 5 13 9 24 14 24 11 0 -3 14
-2 31 3 23 7 37 5 52 -5 18 -12 22 -12 38 8 11 15 30 24 56 25 21 2 49 10 62
19 18 11 36 14 74 9 36 -5 54 -3 66 8 9 8 45 17 81 20 36 4 76 9 90 12 14 2
36 6 49 9 25 5 84 22 111 32 8 3 35 8 59 10 25 2 50 8 58 14 9 8 13 8 13 0 0
-7 8 -8 25 -1 14 5 41 8 61 5 19 -2 32 0 29 4 -9 16 23 20 35 5 10 -11 9 -14
-6 -15 -12 0 -14 -3 -6 -6 7 -3 23 4 35 15 37 35 75 44 108 28 27 -13 30 -13
40 5 5 11 14 17 20 13 5 -3 16 -1 24 6 10 9 16 7 23 -6 8 -15 13 -16 25 -5 9
7 21 11 29 10 7 -1 21 1 31 6 10 4 38 5 62 3 28 -4 46 -1 48 6 3 8 9 7 21 -3
14 -12 16 -12 10 3 -3 9 -1 16 5 16 6 0 11 -8 11 -17 0 -14 8 -18 38 -18 20 0
42 3 49 8 6 4 14 3 18 -3 4 -6 11 -8 16 -5 5 4 9 1 9 -5 0 -7 6 -10 14 -7 7 3
19 0 25 -6 8 -8 11 -8 11 1 0 6 7 9 16 5 8 -3 13 -12 10 -20 -3 -8 -2 -11 3
-8 5 3 12 1 15 -4 4 -5 20 -7 36 -5 17 3 30 1 30 -5 0 -6 11 -11 24 -11 13 0
27 -7 30 -16 4 -9 9 -14 12 -11 8 8 44 -25 44 -40 0 -7 7 -13 16 -13 11 0 14
-6 9 -22 -7 -23 -7 -23 9 -3 14 18 15 18 16 3 0 -10 5 -18 10 -18 33 0 65 -41
62 -80 -1 -10 0 -11 4 -2 8 17 37 15 31 -2 -4 -10 -1 -13 9 -9 8 3 14 -1 14
-11 0 -9 7 -17 15 -17 8 -1 20 -2 26 -3 6 0 16 -9 23 -18 7 -10 18 -18 23 -18
6 0 18 -11 27 -25 9 -14 22 -24 28 -22 8 1 12 -11 12 -33 0 -19 5 -39 10 -43
8 -6 7 -10 -2 -14 -10 -4 -9 -8 4 -17 16 -12 36 -101 35 -154 0 -12 3 -22 8
-22 5 0 7 -14 5 -31 -2 -17 1 -50 6 -75 8 -34 7 -51 -4 -72 -12 -23 -12 -29 0
-40 20 -18 19 -92 -1 -92 -8 0 -15 -8 -15 -19 0 -10 7 -24 15 -31 20 -16 21
-90 1 -90 -10 0 -14 -18 -15 -72 0 -51 2 -68 9 -58 8 12 10 10 10 -8 0 -14 -4
-21 -11 -16 -7 4 -10 -5 -8 -27 4 -68 4 -69 -55 -69 -49 0 -54 -2 -49 -19 4
-16 1 -19 -16 -14 -13 3 -21 1 -21 -7 0 -9 -3 -10 -13 -1 -8 6 -16 8 -20 5 -3
-3 -32 -7 -64 -9 -32 -2 -62 -4 -68 -5 -5 -1 -12 -2 -15 0 -28 10 -50 8 -50
-6 0 -8 -4 -13 -8 -10 -17 10 -72 16 -72 7 0 -5 -28 -8 -62 -6 -38 1 -66 -2
-70 -9 -5 -8 -8 -7 -8 2 0 6 -4 12 -10 12 -5 0 -10 -7 -10 -15 0 -14 -17 -20
-50 -17 -8 1 -59 -5 -112 -14 -54 -8 -104 -12 -110 -8 -7 4 -10 4 -6 0 8 -9
-23 -47 -33 -40 -4 2 -19 -9 -32 -26 -14 -16 -30 -30 -35 -30 -15 0 -19 -55
-8 -104 8 -36 17 -49 46 -64 19 -11 41 -17 48 -15 6 3 12 -2 12 -11 0 -12 5
-14 24 -6 13 5 33 9 43 9 70 0 102 3 130 12 17 6 58 12 90 14 32 2 68 7 79 10
12 4 25 2 28 -4 4 -5 13 -8 21 -4 8 3 15 1 15 -4 0 -5 7 -10 15 -10 8 0 15 3
15 7 0 4 14 5 30 2 17 -2 36 1 43 6 14 12 58 5 68 -11 17 -25 187 -14 225 15
6 5 20 5 29 1 12 -4 16 -3 12 4 -4 6 3 9 18 7 14 -1 25 2 25 6 0 5 10 7 22 5
12 -3 26 0 33 5 21 18 191 34 200 19 4 -5 18 -6 33 -3 l27 5 -22 -19 c-13 -11
-24 -30 -26 -42 -2 -12 -9 -25 -16 -29 -12 -8 -12 -32 1 -42 5 -3 9 -17 10
-31 1 -15 5 -25 9 -22 14 8 113 -45 135 -72 8 -11 14 -14 13 -9 -3 23 2 31 20
31 11 0 17 -5 14 -13 -3 -7 -9 -13 -14 -13 -5 0 -9 -4 -9 -10 0 -5 9 -10 20
-10 11 0 20 5 20 10 0 6 5 10 11 10 5 0 7 -4 4 -10 -4 -6 5 -10 19 -10 20 0
26 5 27 23 0 12 3 16 6 9 4 -10 8 -10 21 0 13 11 14 11 8 -1 -6 -9 -5 -12 5
-9 8 3 19 -2 26 -11 10 -14 11 -12 7 9 -5 20 -3 22 5 10 9 -13 11 -12 12 5 0
11 3 14 6 8 6 -16 39 -17 48 -3 4 6 12 7 18 3 14 -11 143 -9 175 1 12 4 22 4
22 -1 0 -7 98 -10 125 -3 6 1 12 1 15 0 15 -6 68 -5 65 1 -3 3 10 6 28 5 17
-1 47 5 65 13 29 13 34 13 43 1 6 -10 11 -12 17 -4 14 21 152 45 152 27 0 -5
11 -8 25 -8 14 0 25 4 25 8 0 12 70 5 108 -10 17 -7 32 -10 32 -7 0 4 8 0 18
-9 14 -13 21 -14 30 -5 9 9 18 8 39 -2 36 -17 67 -22 125 -23 26 0 45 -4 42
-8 -10 -17 14 -17 42 0 16 10 44 17 62 16 18 -1 32 2 32 7 0 5 4 7 9 3 5 -3
13 -1 16 5 5 8 11 8 20 0 8 -7 18 -10 22 -7 4 3 28 6 53 8 25 1 49 5 55 8 20
10 47 7 52 -6 4 -11 9 -11 24 3 16 14 19 14 19 2 0 -11 16 -14 83 -12 45 1 87
3 92 5 13 3 48 -12 58 -25 5 -7 12 -5 22 8 7 10 18 15 24 12 5 -3 16 1 24 9 9
8 23 15 31 15 10 0 16 9 16 25 0 14 4 25 10 25 11 0 8 45 -4 73 -5 10 -4 23 3
31 8 10 5 16 -15 25 -14 6 -30 8 -35 5 -6 -3 -10 0 -8 7 3 29 -2 39 -21 39
-11 0 -20 -4 -20 -9 0 -5 -16 -1 -35 9 -23 12 -51 17 -82 15 -27 -2 -52 0 -58
5 -5 4 -26 8 -45 8 -19 0 -37 1 -40 2 -3 1 -16 3 -30 4 -14 0 -31 5 -37 9 -8
5 -13 4 -13 -3 0 -6 -5 -8 -12 -3 -7 4 -33 8 -58 9 -25 1 -53 5 -62 9 -11 4
-18 3 -18 -5 0 -7 -6 -5 -16 5 -14 13 -18 14 -25 3 -6 -10 -13 -10 -26 -2 -10
6 -27 8 -38 4 -11 -4 -26 -3 -32 2 -9 7 -15 5 -19 -6 -6 -15 -28 -17 -50 -4
-6 4 -21 6 -32 3 -12 -2 -24 0 -27 6 -4 5 2 9 12 10 10 0 13 3 6 5 -7 3 -21 0
-32 -6 -12 -6 -21 -7 -21 -2 0 4 -16 16 -35 25 -35 17 -58 44 -70 86 -5 17 -4
22 5 16 10 -6 11 -1 6 19 -5 22 -3 26 14 26 18 0 19 3 10 20 -6 11 -15 18 -19
15 -18 -11 -32 26 -35 94 -2 39 -1 73 2 76 7 7 3 82 -7 159 -4 31 -5 54 -3 51
6 -6 32 15 32 26 0 5 -7 6 -15 3 -18 -7 -22 31 -5 41 8 5 7 12 -2 22 -21 25
-11 133 14 160 20 21 20 24 5 41 -14 15 -15 27 -8 68 5 27 7 52 4 57 -14 22
52 109 70 91 3 -3 36 11 74 30 38 20 74 36 80 36 6 0 13 4 15 9 2 5 9 11 17
13 7 2 25 13 39 26 15 13 38 22 58 22 19 0 34 3 34 8 0 4 16 16 35 26 19 11
35 23 35 28 0 5 5 6 10 3 6 -3 10 -1 10 5 0 6 5 8 13 3 21 -13 37 -12 37 4 0
12 3 13 13 4 10 -8 17 -7 25 1 16 16 402 17 402 1 0 -9 7 -8 27 2 22 12 29 12
46 0 11 -7 25 -11 32 -8 8 2 23 0 34 -7 13 -6 21 -7 21 -1 0 14 63 -14 68 -29
3 -8 0 -10 -8 -5 -8 5 -11 4 -6 -3 4 -6 13 -9 20 -6 8 3 18 -7 26 -25 7 -17
17 -28 23 -24 5 3 7 1 3 -5 -3 -6 -2 -13 4 -17 6 -4 8 -11 5 -16 -4 -5 -2 -9
4 -9 5 0 8 -11 7 -25 -2 -13 0 -24 3 -23 21 2 29 -5 29 -27 0 -14 -5 -25 -10
-25 -5 0 0 -10 12 -22 11 -12 20 -27 21 -32 0 -6 2 -18 4 -26 10 -40 16 -68
24 -105 5 -22 16 -66 24 -98 9 -32 14 -64 11 -71 -3 -8 0 -17 5 -21 6 -3 9
-11 6 -16 -4 -5 -2 -9 3 -9 6 0 8 -9 5 -20 -3 -11 0 -20 6 -20 6 0 11 -10 11
-22 0 -13 6 -34 13 -48 10 -18 11 -31 3 -48 -7 -17 -7 -25 2 -31 7 -4 13 -26
15 -48 1 -23 11 -51 21 -62 19 -21 19 -21 0 -21 -11 0 -15 -3 -8 -8 8 -5 43
-85 50 -112 5 -24 26 -61 31 -57 3 4 25 -10 48 -31 73 -65 84 -72 127 -75 24
-2 53 -9 66 -16 19 -10 26 -10 39 0 16 14 54 18 63 8 11 -14 50 -20 50 -8 0 9
3 9 14 0 11 -9 16 -9 21 0 6 8 10 8 16 -2 6 -11 11 -11 21 -1 6 6 20 12 31 12
10 0 42 13 72 30 30 16 56 26 59 22 6 -10 44 -7 76 6 14 5 30 6 35 1 7 -5 16
0 23 12 8 13 21 19 35 17 15 -2 33 9 58 36 23 24 41 36 49 31 7 -4 16 -2 21 6
6 10 9 11 9 2 0 -7 7 -13 15 -13 8 0 14 3 14 8 -4 25 3 32 26 26 15 -4 25 -2
25 5 0 6 7 11 15 11 18 0 19 12 3 28 -9 9 -8 18 1 39 7 16 13 29 12 30 0 2 6
17 12 35 8 19 12 67 11 113 -2 75 -5 108 -18 195 -8 55 -17 141 -20 189 -2 24
-8 46 -14 50 -11 7 -21 74 -25 163 -1 44 -7 61 -22 72 -18 14 -18 15 -2 16 21
0 23 20 2 20 -8 0 -15 5 -15 10 0 6 4 10 8 10 10 0 3 58 -8 65 -5 3 -7 -10 -5
-27 4 -31 3 -30 -9 7 -7 22 -10 42 -6 45 4 3 9 14 11 25 3 11 10 20 17 20 6 0
11 -3 10 -7 -2 -3 8 -18 21 -31 12 -14 20 -30 16 -36 -11 -19 11 -12 29 8 19
21 46 18 46 -6 0 -9 5 -11 13 -6 6 4 17 8 22 8 24 2 43 18 38 31 -3 9 0 14 8
12 7 -2 13 2 14 9 0 7 6 18 13 25 17 17 15 31 -4 24 -11 -4 -14 -1 -10 12 5
13 -1 21 -21 28 -19 6 -27 17 -29 39 -10 93 -10 115 0 115 6 0 3 7 -7 15 -11
7 -18 24 -16 37 1 13 -1 31 -5 40 -4 9 -5 21 -2 27 4 5 1 13 -5 16 -5 4 -8 13
-5 21 3 8 1 14 -4 14 -5 0 -7 9 -5 20 2 10 -7 41 -21 67 -13 26 -22 53 -20 59
2 5 -6 27 -19 48 -18 30 -21 44 -15 67 5 17 5 27 0 24 -8 -5 -34 30 -35 47 0
3 -3 10 -7 14 -5 4 -8 18 -8 30 0 13 -5 26 -10 29 -6 4 -8 15 -5 26 4 11 2 19
-4 19 -6 0 -11 9 -11 20 0 11 -4 20 -9 20 -5 0 -14 14 -20 30 -5 17 -20 44
-31 60 -15 21 -17 30 -8 30 9 1 7 5 -4 14 -10 7 -15 16 -11 19 3 4 1 7 -5 7
-6 0 -13 9 -17 19 -3 10 -15 21 -26 24 -12 3 -18 10 -14 16 3 6 -8 28 -25 49
-21 27 -28 44 -24 57 5 12 4 16 -4 11 -6 -3 -13 -2 -17 3 -3 5 3 14 12 20 17
9 17 10 1 16 -13 5 -16 14 -12 31 4 15 0 34 -10 50 -16 23 -17 68 -3 91 3 5 1
15 -5 23 -8 12 -9 11 -4 -3 4 -12 2 -17 -6 -15 -7 3 -14 15 -14 27 -1 14 3 20
11 17 7 -2 15 4 18 15 3 12 0 19 -10 19 -9 0 -13 6 -10 14 3 7 0 19 -6 26 -9
10 -9 11 1 5 12 -6 12 -3 2 15 -10 18 -9 24 1 31 11 6 11 11 1 21 -12 12 -16
0 -14 -41 0 -11 -3 -10 -15 2 -8 8 -16 35 -18 60 -2 25 -6 50 -9 55 -4 6 -1
14 5 18 9 5 7 11 -6 20 -11 8 -16 21 -12 34 3 12 -1 23 -11 29 -14 8 -14 12
-3 25 12 14 12 16 -3 10 -13 -5 -15 -2 -10 12 4 11 11 25 17 31 6 9 6 13 -2
13 -6 0 -11 -5 -11 -12 0 -9 -3 -9 -11 -1 -9 9 -16 29 -18 56 -1 5 -5 6 -10 3
-8 -6 -23 58 -23 102 0 13 -2 21 -5 18 -3 -2 -15 5 -28 16 -19 16 -22 25 -14
39 7 14 6 19 -4 19 -12 0 -57 84 -57 106 0 4 -10 19 -22 32 -21 24 -22 25 -3
18 18 -7 18 -5 -3 14 -12 12 -20 25 -17 31 4 5 1 9 -5 9 -6 0 -8 5 -5 10 3 6
0 10 -8 10 -8 0 -22 16 -32 36 -9 19 -23 38 -31 41 -12 4 -12 8 -2 21 9 11 9
14 1 9 -8 -5 -18 3 -27 20 -8 15 -25 39 -39 53 -21 22 -22 26 -8 38 14 11 13
12 -6 7 -16 -4 -23 -2 -23 7 0 8 -9 20 -19 28 -23 16 -18 32 6 23 11 -4 14 -3
9 6 -5 7 -14 10 -22 7 -8 -3 -19 4 -25 16 -7 12 -20 31 -30 42 -11 11 -19 25
-19 30 0 6 -9 17 -20 24 -11 7 -20 19 -20 27 0 14 -34 39 -54 40 -6 0 -11 12
-11 27 -2 24 -36 68 -54 68 -4 0 -15 15 -26 33 -10 17 -35 48 -55 68 -20 20
-39 43 -43 52 -3 9 -12 17 -18 17 -8 0 -7 5 2 17 12 15 12 16 -3 10 -18 -6
-73 37 -64 52 3 5 -2 8 -12 7 -12 -1 -17 6 -17 23 -1 27 -44 68 -55 51 -4 -7
-17 -1 -34 15 -15 14 -24 30 -20 37 4 6 3 8 -3 5 -5 -3 -27 9 -48 28 -21 20
-45 34 -54 33 -10 -2 -15 3 -13 14 1 10 -10 24 -28 34 -16 10 -30 25 -30 32 0
8 -6 12 -14 9 -16 -6 -40 16 -30 26 4 4 -4 11 -17 16 -28 10 -105 79 -102 91
1 4 -4 11 -13 14 -8 3 -12 2 -9 -4 10 -16 -11 -12 -25 5 -7 8 -20 15 -29 16
-12 0 -11 2 4 9 22 9 22 9 -47 30 -21 6 -40 20 -43 30 -4 12 -12 17 -21 13
-10 -4 -17 2 -21 17 -4 15 -8 18 -13 10 -4 -7 -13 -9 -19 -6 -6 4 -8 13 -4 19
4 7 -2 5 -12 -3 -17 -14 -18 -13 -12 4 6 14 4 17 -8 12 -8 -3 -15 -1 -15 4 0
6 -5 10 -10 10 -6 0 -29 12 -52 28 -22 15 -48 32 -57 37 -8 6 -22 16 -29 23
-8 7 -21 11 -28 8 -7 -3 -21 5 -30 17 -11 15 -15 17 -11 5 7 -20 -17 -26 -28
-8 -4 6 -11 8 -16 5 -5 -4 -9 -1 -9 5 0 6 -5 8 -11 4 -6 -3 -24 3 -40 15 -15
11 -32 21 -37 21 -5 0 -17 9 -27 20 -10 11 -23 19 -29 17 -6 -3 -26 7 -45 21
-25 18 -35 21 -41 12 -5 -9 -9 -9 -14 -1 -4 6 -26 21 -48 32 -22 11 -37 16
-33 10 9 -15 -8 -14 -23 1 -9 9 -12 9 -12 0 0 -9 -5 -9 -17 -3 -23 12 -74 25
-90 22 -7 -1 -13 3 -13 9 0 5 5 10 10 10 6 0 10 5 10 12 0 6 -8 4 -19 -6 -13
-11 -27 -15 -40 -11 -12 4 -21 2 -21 -4 0 -16 -31 -8 -65 15 -17 12 -37 22
-45 22 -66 5 -117 17 -127 30 -7 9 -13 11 -13 6 0 -5 -21 -9 -47 -8 -37 2 -48
6 -55 23 -4 12 -10 21 -13 21 -4 0 -4 -4 -1 -9 4 -5 4 -16 0 -24 -8 -21 -43
-10 -39 13 3 18 -16 22 -32 6 -4 -4 -3 -6 2 -4 6 2 11 -2 13 -7 1 -6 -1 -10
-5 -10 -25 -2 -63 -17 -63 -26 0 -6 -5 -7 -10 -4 -6 4 -8 15 -5 26 5 14 2 19
-11 19 -9 0 -24 8 -33 18 -9 10 -24 21 -33 25 -10 3 -18 13 -18 22 0 8 -5 15
-11 15 -6 0 -9 6 -7 12 3 7 -4 17 -15 23 -12 6 -22 23 -24 40 -3 16 -7 32 -11
35 -4 3 -13 17 -19 31 -10 22 -9 30 5 45 25 27 62 93 62 110 0 8 4 14 9 14 5
0 12 10 16 23 4 12 8 25 10 30 7 19 7 23 6 31 -1 4 4 14 10 22 6 8 8 14 5 14
-4 0 -2 9 4 20 6 11 15 18 19 15 13 -7 19 17 11 40 -4 11 -2 25 5 31 16 16 29
169 25 288 -1 11 3 22 8 25 5 3 9 17 8 31 -1 19 3 24 17 22 9 -2 17 2 17 8 0
5 -6 10 -12 10 -9 0 -9 3 1 9 8 5 19 7 25 5 6 -2 18 1 26 6 13 8 13 11 1 19
-14 9 -18 4 57 84 23 24 29 37 20 40 -8 3 -6 6 5 6 14 1 17 6 12 22 -5 15 -4
19 4 15 7 -5 11 2 11 19 0 15 4 24 10 20 5 -3 7 0 4 8 -2 7 6 24 19 38 21 21
79 130 77 144 -1 3 6 18 14 33 22 41 29 65 27 90 -2 16 3 22 16 22 15 0 18 7
18 36 -1 20 2 59 7 88 5 28 10 60 12 71 1 12 5 25 8 30 3 6 4 29 3 53 -3 44
-21 76 -36 66 -5 -3 -9 -1 -9 5 0 6 -8 7 -17 4 -25 -10 -50 -38 -45 -51 2 -7
-1 -12 -6 -12 -6 0 -16 -17 -23 -37 -7 -21 -14 -32 -16 -25 -3 6 -9 12 -14 12
-6 0 -7 -4 -4 -10 8 -13 -8 -13 -22 1 -8 8 -15 4 -27 -13 -14 -20 -18 -21 -27
-8 -9 13 -10 12 -5 -2 3 -10 9 -26 13 -35 5 -12 2 -15 -10 -10 -9 3 -18 2 -18
-3 -1 -6 -2 -16 -3 -22 -1 -7 -7 -12 -14 -10 -7 1 -12 -5 -12 -13 0 -17 -67
-65 -90 -65 -9 0 -25 -8 -36 -19 -11 -10 -30 -22 -42 -25 -12 -4 -22 -12 -22
-17 0 -5 -7 -9 -15 -9 -8 0 -15 -4 -15 -10 0 -5 -7 -7 -15 -4 -8 4 -22 0 -31
-7 -20 -16 -51 -22 -59 -10 -7 13 5 42 16 35 5 -3 9 0 9 5 0 17 -18 13 -28 -5
-7 -13 -19 -7 -68 41 -32 32 -75 63 -94 70 -21 7 -36 19 -38 31 -3 18 -19 31
-94 75 -15 9 -35 22 -43 29 -8 7 -15 9 -15 4 0 -5 -15 7 -33 27 -18 19 -40 38
-50 42 -10 4 -16 10 -14 14 3 5 -8 8 -25 9 -17 1 -35 10 -44 22 -8 12 -21 19
-29 15 -9 -3 -24 5 -36 21 -11 14 -27 26 -34 26 -7 0 -21 7 -30 16 -9 9 -26
18 -38 19 -37 4 -38 5 -31 17 4 6 3 8 -3 5 -5 -3 -27 -1 -49 4 -21 6 -48 11
-59 13 -11 2 -20 5 -20 6 0 1 -14 3 -32 5 -19 1 -41 13 -56 28 -19 21 -26 24
-37 14 -10 -10 -12 -8 -6 7 5 16 4 17 -9 6 -10 -8 -15 -9 -15 -1 0 9 -37 24
-62 26 -3 0 -10 3 -14 8 -4 4 -18 7 -31 7 -14 0 -23 6 -23 15 0 8 -4 15 -10
15 -5 0 -9 -3 -9 -7 4 -22 -3 -24 -21 -8 -11 10 -20 15 -20 11 0 -4 -8 -2 -18
3 -13 7 -23 6 -30 -1 -9 -9 -12 -8 -12 6 0 17 -1 17 -17 0 -17 -17 -18 -17
-21 3 -4 29 -32 39 -32 12 0 -12 -5 -19 -12 -16 -19 6 -10 39 16 62 13 12 22
31 21 48 0 15 2 27 6 27 5 0 6 26 4 58 -2 33 2 63 8 71 9 11 9 15 0 18 -7 2
-10 10 -7 17 6 15 -12 175 -20 184 -4 3 -29 6 -56 7 -27 1 -47 -1 -45 -4 3 -2
-1 -11 -8 -19 -6 -8 -13 -25 -13 -36 -3 -44 -16 -68 -35 -63 -12 3 -19 0 -19
-9 0 -8 7 -14 17 -14 15 0 10 -15 -5 -15 -15 0 -32 -17 -26 -26 12 -19 -76
-119 -105 -119 -18 0 -80 52 -82 70 -1 6 -2 14 -3 20 0 5 -18 25 -39 44 -24
22 -36 40 -31 47 5 8 2 10 -8 6 -11 -4 -20 6 -31 34 -9 22 -13 47 -11 54 3 8
-4 29 -17 46 -13 18 -25 27 -27 21 -2 -7 -8 -12 -13 -12 -6 0 -7 5 -3 11 4 7
-1 10 -12 7 -27 -5 -48 27 -63 94 -7 32 -17 60 -22 63 -5 4 -9 19 -9 34 0 21
-6 30 -22 35 -31 8 -32 8 -53 -8z m4284 -3890 c9 -10 8 -15 -3 -19 -16 -6 -40
16 -29 26 10 11 19 8 32 -7z m-5349 -2386 c0 -5 -5 -10 -11 -10 -5 0 -7 5 -4
10 3 6 8 10 11 10 2 0 4 -4 4 -10z m6630 -841 c0 -5 -4 -9 -10 -9 -5 0 -10 7
-10 16 0 8 5 12 10 9 6 -3 10 -10 10 -16z m-3423 -44 c6 0 15 3 19 8 12 11 24
8 24 -7 0 -7 25 -31 55 -51 30 -21 52 -42 49 -46 -3 -5 4 -9 15 -9 12 0 21 -5
21 -11 0 -5 5 -7 10 -4 6 3 13 -1 16 -9 3 -9 12 -16 20 -16 8 0 14 -4 14 -10
0 -5 7 -10 15 -10 8 0 15 -6 15 -14 0 -8 13 -18 28 -24 16 -5 36 -17 45 -27 9
-9 17 -11 17 -5 0 7 6 8 18 1 9 -5 28 -11 42 -12 14 -2 39 -17 56 -34 17 -16
40 -35 50 -42 10 -6 18 -16 16 -22 -1 -6 2 -11 7 -11 4 0 7 -12 5 -26 -1 -15
1 -36 5 -48 6 -14 3 -25 -8 -33 -14 -12 -14 -12 1 -7 14 5 18 1 17 -17 0 -33
11 -120 17 -131 3 -4 0 -8 -7 -8 -8 0 -9 -4 0 -13 11 -15 13 -277 1 -277 -4 0
-7 -7 -7 -15 0 -8 4 -15 8 -15 4 0 5 -9 2 -19 -3 -11 -10 -18 -17 -15 -15 6
-16 -77 -1 -88 6 -5 6 -8 -1 -8 -6 0 -10 -12 -10 -27 1 -16 -7 -41 -17 -56
-10 -15 -16 -35 -13 -43 5 -12 2 -15 -9 -10 -10 3 -15 1 -13 -7 2 -7 -10 -26
-25 -41 -26 -26 -31 -27 -53 -16 -13 8 -24 21 -24 30 0 23 -32 50 -37 32 -3
-6 -9 -9 -14 -6 -5 3 -48 12 -95 19 -83 14 -143 11 -155 -7 -7 -10 -39 0 -39
13 0 4 -20 6 -44 3 -35 -5 -48 -2 -63 13 -10 10 -26 17 -36 15 -11 -2 -17 3
-17 15 0 11 -3 14 -8 7 -10 -14 -42 -25 -42 -14 0 5 8 14 18 19 9 6 13 10 7
11 -5 0 -17 -4 -25 -10 -9 -5 -19 -5 -27 2 -7 6 -22 8 -33 5 -11 -3 -20 -1
-20 4 0 4 -6 6 -14 3 -9 -3 -20 3 -28 15 -7 12 -21 21 -30 21 -10 0 -22 8 -27
18 -5 10 -20 24 -34 31 -20 11 -23 18 -20 53 2 22 0 45 -6 52 -6 7 -6 17 -1
26 6 9 5 17 -3 22 -9 6 -8 8 3 8 13 0 13 2 1 9 -12 8 -13 12 -1 25 11 14 10
16 -4 10 -12 -5 -16 0 -16 22 0 22 3 26 10 14 7 -11 8 -5 5 20 -12 83 -13 125
-4 142 6 12 6 18 0 18 -6 0 -9 14 -7 30 2 17 0 30 -5 30 -5 0 -6 7 -3 15 4 8
11 12 17 8 6 -4 7 -1 1 8 -13 22 -14 179 0 179 8 0 8 3 -1 8 -12 8 -12 50 1
70 4 7 2 12 -4 12 -7 0 -10 7 -7 15 4 8 2 17 -4 21 -6 4 -6 11 1 19 7 8 9 19
5 25 -10 16 17 35 54 37 19 1 38 8 42 15 5 7 9 9 9 4 0 -6 5 -5 12 2 7 7 20
12 30 12 11 0 15 5 12 15 -4 8 -1 15 5 15 6 0 11 -7 11 -15 0 -11 9 -15 28
-13 22 2 27 7 27 27 0 19 6 27 23 29 12 2 22 -1 22 -6 0 -5 6 -9 14 -9 15 0
16 21 1 34 -4 4 -5 2 -1 -4 4 -7 2 -13 -4 -13 -7 0 -10 5 -8 11 2 6 6 9 10 7
3 -2 15 5 26 15 11 10 26 15 35 11 11 -4 19 0 24 12 5 14 8 15 12 3 3 -8 11
-14 18 -14z"/>
<path d="M5688 2053 c7 -3 16 -2 19 1 4 3 -2 6 -13 5 -11 0 -14 -3 -6 -6z"/>
<path d="M5737 2049 c7 -7 15 -10 18 -7 3 3 -2 9 -12 12 -14 6 -15 5 -6 -5z"/>
<path d="M5860 1982 c0 -5 7 -9 15 -9 8 0 12 4 9 9 -3 4 -9 8 -15 8 -5 0 -9
-4 -9 -8z"/>
<path d="M4961 1884 c0 -11 3 -14 6 -6 3 7 2 16 -1 19 -3 4 -6 -2 -5 -13z"/>
<path d="M4972 1590 c0 -14 2 -19 5 -12 2 6 2 18 0 25 -3 6 -5 1 -5 -13z"/>
<path d="M5932 1530 c0 -14 2 -19 5 -12 2 6 2 18 0 25 -3 6 -5 1 -5 -13z"/>
<path d="M5890 1446 c0 -2 8 -10 18 -17 15 -13 16 -12 3 4 -13 16 -21 21 -21
13z"/>
<path d="M5226 1254 c-3 -8 -11 -12 -17 -8 -8 4 -9 3 -5 -5 4 -6 12 -9 17 -6
8 6 13 -9 10 -28 -1 -5 3 -6 8 -2 6 3 8 13 5 23 -5 15 -4 14 10 -2 14 -18 15
-18 13 2 0 11 -6 20 -12 19 -5 -1 -9 4 -7 11 3 18 -15 15 -22 -4z"/>
<path d="M5310 1171 c0 -6 4 -12 8 -15 5 -3 9 1 9 9 0 8 -4 15 -9 15 -4 0 -8
-4 -8 -9z"/>
<path d="M5690 8359 c0 -5 5 -7 10 -4 6 3 10 8 10 11 0 2 -4 4 -10 4 -5 0 -10
-5 -10 -11z"/>
<path d="M5725 8360 c3 -5 8 -10 11 -10 2 0 4 5 4 10 0 6 -5 10 -11 10 -5 0
-7 -4 -4 -10z"/>
<path d="M5520 8180 c0 -5 5 -10 10 -10 6 0 10 5 10 10 0 6 -4 10 -10 10 -5 0
-10 -4 -10 -10z"/>
<path d="M5297 8076 c-8 -21 3 -27 19 -11 18 17 18 25 0 25 -8 0 -16 -6 -19
-14z"/>
<path d="M1240 7651 c0 -6 4 -13 10 -16 6 -3 7 1 4 9 -7 18 -14 21 -14 7z"/>
<path d="M5290 6761 c0 -5 5 -13 10 -16 6 -3 10 -2 10 4 0 5 -4 13 -10 16 -5
3 -10 2 -10 -4z"/>
<path d="M6585 6250 c3 -5 8 -10 11 -10 2 0 4 5 4 10 0 6 -5 10 -11 10 -5 0
-7 -4 -4 -10z"/>
<path d="M7565 5550 c3 -5 8 -10 11 -10 2 0 4 5 4 10 0 6 -5 10 -11 10 -5 0
-7 -4 -4 -10z"/>
<path d="M7651 5434 c0 -11 3 -14 6 -6 3 7 2 16 -1 19 -3 4 -6 -2 -5 -13z"/>
<path d="M7690 5380 c0 -5 5 -10 11 -10 5 0 7 5 4 10 -3 6 -8 10 -11 10 -2 0
-4 -4 -4 -10z"/>
<path d="M8271 4554 c0 -11 3 -14 6 -6 3 7 2 16 -1 19 -3 4 -6 -2 -5 -13z"/>
<path d="M2232 3240 c7 -11 17 -20 22 -20 5 0 1 9 -9 20 -10 11 -20 20 -22 20
-2 0 2 -9 9 -20z"/>
<path d="M2065 3220 c-3 -6 1 -7 9 -4 18 7 21 14 7 14 -6 0 -13 -4 -16 -10z"/>
<path d="M1890 3140 c0 -5 5 -10 10 -10 6 0 10 5 10 10 0 6 -4 10 -10 10 -5 0
-10 -4 -10 -10z"/>
<path d="M1810 2881 c0 -6 4 -13 10 -16 6 -3 7 1 4 9 -7 18 -14 21 -14 7z"/>
<path d="M8830 2046 c0 -8 4 -17 9 -20 5 -4 7 3 4 14 -6 23 -13 26 -13 6z"/>
<path d="M4490 1210 c0 -5 5 -10 10 -10 6 0 10 5 10 10 0 6 -4 10 -10 10 -5 0
-10 -4 -10 -10z"/>
<path d="M3721 1084 c0 -11 3 -14 6 -6 3 7 2 16 -1 19 -3 4 -6 -2 -5 -13z"/>
<path d="M8530 1056 c0 -2 7 -7 16 -10 8 -3 12 -2 9 4 -6 10 -25 14 -25 6z"/>
<path d="M7060 960 c0 -5 5 -10 11 -10 5 0 7 5 4 10 -3 6 -8 10 -11 10 -2 0
-4 -4 -4 -10z"/>
</g>
</svg>
